<?xml version="1.0" encoding="utf-8"?>
<svg version="1.1" id="Artboard_1" xmlns="http://www.w3.org/2000/svg" xmlns:xlink="http://www.w3.org/1999/xlink" x="0px" y="0px" viewBox="0 0 220 68" style="enable-background:new 0 0 220 68;" xml:space="preserve">
<style type="text/css">
	.st0{fill-rule:evenodd;clip-rule:evenodd;}
	.st1{fill-rule:evenodd;clip-rule:evenodd;fill:#6E3C14;}
	.st2{fill-rule:evenodd;clip-rule:evenodd;fill:#DC7828;}
	.st3{fill-rule:evenodd;clip-rule:evenodd;fill:#6E3C14;fill-opacity:0.80;}
	.st4{fill-rule:evenodd;clip-rule:evenodd;fill:#FFFFFF;}
	.st5{fill-rule:evenodd;clip-rule:evenodd;fill:url(#gradient);}
</style>
<path id="nombre" class="st0" d="M192.973,41.287h0.766v-2.435
	c0-0.931-0.463-1.408-1.262-1.408c-0.529,0-0.991,0.216-1.354,0.544h-0.013v-0.469h-0.7v3.769h0.76v-2.852
	c0.271-0.209,0.621-0.328,0.958-0.328c0.562,0,0.846,0.268,0.846,0.842V41.287L192.973,41.287z M187.885,38.085
	c0.529,0,0.839,0.358,0.839,0.991h-1.823C186.921,38.472,187.304,38.085,187.885,38.085L187.885,38.085z M187.866,37.444
	c-1.057,0-1.738,0.775-1.738,1.966c0,1.244,0.7,1.981,1.903,1.981c0.429,0,0.918-0.104,1.275-0.268v-0.626
	c-0.443,0.171-0.806,0.261-1.143,0.261c-0.819,0-1.255-0.387-1.262-1.117h2.524v-0.372C189.425,38.122,188.85,37.444,187.866,37.444
	L187.866,37.444z M182.488,41.287h0.766v-2.435c0-0.931-0.463-1.408-1.262-1.408c-0.529,0-0.991,0.216-1.354,0.544h-0.013v-0.469
	h-0.7v3.769h0.76v-2.852c0.271-0.209,0.621-0.328,0.958-0.328c0.562,0,0.846,0.268,0.846,0.842V41.287L182.488,41.287z
	 M178.14,39.433c0,0.782-0.456,1.311-1.123,1.311c-0.681,0-1.13-0.521-1.13-1.341c0-0.804,0.463-1.311,1.13-1.311
	C177.691,38.092,178.14,38.613,178.14,39.433L178.14,39.433z M178.94,39.44c0-1.207-0.766-1.996-1.929-1.996
	c-1.13,0-1.909,0.797-1.909,1.966c0,1.177,0.76,1.981,1.876,1.981C178.121,41.391,178.94,40.587,178.94,39.44L178.94,39.44z
	 M177.169,35.701l-0.562,1.296h0.515l0.879-1.296H177.169L177.169,35.701z M173.35,41.287h0.76v-3.769h-0.76V41.287L173.35,41.287z
	 M174.11,36.871v-0.856h-0.76v0.856H174.11L174.11,36.871z M172.439,41.19v-0.655c-0.337,0.134-0.667,0.201-0.991,0.201
	c-0.813,0-1.249-0.462-1.255-1.326c-0.007-0.871,0.429-1.311,1.275-1.311c0.297,0,0.575,0.045,0.879,0.149v-0.67
	c-0.317-0.082-0.641-0.134-0.912-0.134c-1.295,0-2.035,0.73-2.035,1.996c0,1.221,0.714,1.951,1.916,1.951
	C171.699,41.391,172.075,41.324,172.439,41.19L172.439,41.19z M165.944,40.177c0-0.432,0.291-0.655,0.879-0.655h0.733v0.938
	c-0.251,0.194-0.548,0.283-0.892,0.283C166.175,40.743,165.944,40.542,165.944,40.177L165.944,40.177z M168.316,40.557v-1.728
	c0-0.976-0.436-1.385-1.48-1.385c-0.403,0-0.826,0.06-1.242,0.179l-0.007,0.618c0.423-0.104,0.799-0.149,1.103-0.149
	c0.614,0,0.866,0.216,0.866,0.722v0.201h-0.898c-0.951,0-1.48,0.439-1.48,1.236c0,0.715,0.449,1.125,1.242,1.125
	c0.495,0,0.912-0.156,1.216-0.469c0.079,0.335,0.284,0.469,0.634,0.469c0.159,0,0.304-0.037,0.476-0.097v-0.499
	c-0.099,0.015-0.132,0.015-0.172,0.015C168.415,40.796,168.316,40.728,168.316,40.557L168.316,40.557z M161.498,39.373
	c0-0.797,0.396-1.288,1.031-1.288c0.337,0,0.621,0.112,0.912,0.35v1.825c-0.311,0.253-0.621,0.38-0.925,0.38
	C161.868,40.639,161.498,40.185,161.498,39.373L161.498,39.373z M163.453,40.781v0.596c0,0.588-0.344,0.849-1.123,0.849
	c-0.39,0-0.76-0.089-1.242-0.29v0.663c0.423,0.171,0.872,0.253,1.368,0.253c1.183,0,1.751-0.521,1.751-1.616v-3.716h-0.694v0.417
	H163.5c-0.304-0.313-0.727-0.492-1.15-0.492c-0.998,0-1.638,0.76-1.638,1.936c0,1.199,0.581,1.907,1.566,1.907
	c0.436,0,0.846-0.179,1.163-0.506H163.453L163.453,40.781z M158.961,41.287h0.76v-3.769h-0.76V41.287L158.961,41.287z
	 M159.721,36.871v-0.856h-0.76v0.856H159.721L159.721,36.871z M156.82,40.252v-2.13h1.229v-0.603h-1.229v-1.035h-0.766v1.035h-0.674
	v0.603h0.674v2.115c0,0.76,0.396,1.154,1.13,1.154c0.264,0,0.595-0.045,0.813-0.104v-0.64c-0.231,0.067-0.429,0.097-0.601,0.097
	C157.005,40.743,156.82,40.594,156.82,40.252L156.82,40.252z M154.884,40.244c0-1.318-1.724-0.983-1.724-1.713
	c0-0.35,0.264-0.492,0.654-0.492c0.317,0,0.628,0.074,0.885,0.209v-0.633c-0.205-0.082-0.548-0.171-0.938-0.171
	c-0.786,0-1.348,0.335-1.348,1.102c0,1.355,1.711,0.991,1.711,1.72c0,0.41-0.311,0.529-0.68,0.529c-0.396,0-0.74-0.104-1.057-0.238
	v0.633c0.344,0.149,0.766,0.201,1.077,0.201C154.25,41.391,154.884,41.064,154.884,40.244L154.884,40.244z M150.127,38.085
	c0.529,0,0.839,0.358,0.839,0.991h-1.823C149.163,38.472,149.546,38.085,150.127,38.085L150.127,38.085z M150.108,37.444
	c-1.057,0-1.738,0.775-1.738,1.966c0,1.244,0.7,1.981,1.903,1.981c0.429,0,0.918-0.104,1.275-0.268v-0.626
	c-0.443,0.171-0.806,0.261-1.143,0.261c-0.819,0-1.255-0.387-1.262-1.117h2.524v-0.372
	C151.667,38.122,151.092,37.444,150.108,37.444L150.108,37.444z M145.661,41.287h0.839l1.414-3.769h-0.727l-1.084,2.987h-0.013
	l-1.083-2.987h-0.766L145.661,41.287L145.661,41.287z M142.721,41.287h0.766v-2.435c0-0.931-0.462-1.408-1.262-1.408
	c-0.529,0-0.991,0.216-1.354,0.544h-0.013v-0.469h-0.7v3.769h0.76v-2.852c0.271-0.209,0.621-0.328,0.958-0.328
	c0.562,0,0.846,0.268,0.846,0.842V41.287L142.721,41.287z M138.044,36.245v5.042h0.793v-5.042H138.044L138.044,36.245z
	 M133.538,38.085c0.529,0,0.839,0.358,0.839,0.991h-1.823C132.573,38.472,132.956,38.085,133.538,38.085L133.538,38.085z
	 M133.518,37.444c-1.057,0-1.738,0.775-1.738,1.966c0,1.244,0.7,1.981,1.903,1.981c0.429,0,0.918-0.104,1.275-0.268v-0.626
	c-0.443,0.171-0.806,0.261-1.143,0.261c-0.819,0-1.255-0.387-1.262-1.117h2.524v-0.372
	C135.077,38.122,134.502,37.444,133.518,37.444L133.518,37.444z M128.034,39.448c0-0.834,0.416-1.363,1.064-1.363
	c0.324,0,0.621,0.104,0.932,0.343v1.951c-0.258,0.223-0.608,0.357-0.945,0.357C128.424,40.736,128.034,40.259,128.034,39.448
	L128.034,39.448z M127.248,39.455c0,1.199,0.595,1.929,1.586,1.929c0.443,0,0.879-0.194,1.242-0.544h0.007v0.447h0.707v-5.414h-0.76
	v1.981h-0.013c-0.324-0.283-0.661-0.41-1.084-0.41C127.882,37.444,127.248,38.204,127.248,39.455L127.248,39.455z M123.819,39.433
	c0,0.782-0.456,1.311-1.123,1.311c-0.681,0-1.13-0.521-1.13-1.341c0-0.804,0.463-1.311,1.13-1.311
	C123.37,38.092,123.819,38.613,123.819,39.433L123.819,39.433z M124.618,39.44c0-1.207-0.766-1.996-1.929-1.996
	c-1.13,0-1.909,0.797-1.909,1.966c0,1.177,0.76,1.981,1.876,1.981C123.799,41.391,124.618,40.587,124.618,39.44L124.618,39.44z
	 M120.311,38.234v-0.789c-0.509,0-0.899,0.208-1.387,0.752h-0.02v-0.678h-0.7v3.769h0.76v-2.569
	C119.359,38.405,119.842,38.234,120.311,38.234L120.311,38.234z M116.063,40.252v-2.13h1.229v-0.603h-1.229v-1.035h-0.766v1.035
	h-0.674v0.603h0.674v2.115c0,0.76,0.396,1.154,1.13,1.154c0.264,0,0.595-0.045,0.813-0.104v-0.64
	c-0.231,0.067-0.429,0.097-0.601,0.097C116.248,40.743,116.063,40.594,116.063,40.252L116.063,40.252z M113.142,41.287h0.766v-2.435
	c0-0.931-0.463-1.408-1.262-1.408c-0.529,0-0.991,0.216-1.354,0.544h-0.013v-0.469h-0.7v3.769h0.76v-2.852
	c0.271-0.209,0.621-0.328,0.958-0.328c0.562,0,0.846,0.268,0.846,0.842V41.287L113.142,41.287z M108.055,38.085
	c0.529,0,0.839,0.358,0.839,0.991h-1.824C107.091,38.472,107.474,38.085,108.055,38.085L108.055,38.085z M108.035,37.444
	c-1.057,0-1.738,0.775-1.738,1.966c0,1.244,0.7,1.981,1.903,1.981c0.429,0,0.918-0.104,1.275-0.268v-0.626
	c-0.443,0.171-0.806,0.261-1.143,0.261c-0.819,0-1.255-0.387-1.262-1.117h2.524v-0.372C109.595,38.122,109.02,37.444,108.035,37.444
	L108.035,37.444z M105.545,37.094v-0.752c-0.383-0.119-0.832-0.201-1.381-0.201c-1.361,0-2.577,0.819-2.577,2.651
	c0,1.504,0.806,2.599,2.663,2.599c0.568,0,1.024-0.082,1.401-0.201v-0.73c-0.476,0.156-0.839,0.209-1.268,0.209
	c-1.368,0-1.962-0.789-1.962-1.907c0-1.177,0.727-1.899,1.909-1.899C104.758,36.863,105.161,36.96,105.545,37.094L105.545,37.094z
	 M219.529,50.192v-1.072h-0.872v1.072H219.529L219.529,50.192z M217.771,45.999v-0.752c-0.383-0.119-0.832-0.201-1.381-0.201
	c-1.361,0-2.577,0.819-2.577,2.651c0,1.504,0.806,2.599,2.663,2.599c0.568,0,1.024-0.082,1.401-0.201v-0.73
	c-0.476,0.156-0.839,0.209-1.268,0.209c-1.368,0-1.962-0.789-1.962-1.907c0-1.177,0.727-1.899,1.909-1.899
	C216.985,45.768,217.388,45.865,217.771,45.999L217.771,45.999z M212.902,50.192v-1.072h-0.872v1.072H212.902L212.902,50.192z
	 M208.178,48.248l0.819-2.257h0.013l0.832,2.257H208.178L208.178,48.248z M210.557,50.192h0.813l-1.896-5.042h-0.879l-1.896,5.042
	h0.773l0.443-1.214h2.193L210.557,50.192L210.557,50.192z M204.214,49.119h-0.872l-0.231,2.07l0.482,0.067L204.214,49.119
	L204.214,49.119z M201.175,44.777v4.722c0,0.425,0.225,0.775,0.826,0.775c0.172,0,0.383-0.022,0.588-0.097v-0.581
	c-0.099,0.03-0.198,0.037-0.278,0.037c-0.211,0-0.377-0.052-0.377-0.35v-4.506H201.175L201.175,44.777z M197.502,49.082
	c0-0.432,0.291-0.655,0.879-0.655h0.733v0.938c-0.251,0.194-0.548,0.283-0.892,0.283C197.733,49.648,197.502,49.447,197.502,49.082
	L197.502,49.082z M199.874,49.462v-1.728c0-0.976-0.436-1.385-1.48-1.385c-0.403,0-0.826,0.06-1.242,0.179l-0.007,0.618
	c0.423-0.104,0.799-0.149,1.103-0.149c0.614,0,0.866,0.216,0.866,0.722v0.201h-0.899c-0.951,0-1.48,0.439-1.48,1.236
	c0,0.715,0.449,1.125,1.242,1.125c0.495,0,0.912-0.156,1.216-0.469c0.079,0.335,0.284,0.469,0.634,0.469
	c0.158,0,0.304-0.037,0.476-0.097v-0.499c-0.099,0.015-0.132,0.015-0.172,0.015C199.973,49.7,199.874,49.633,199.874,49.462
	L199.874,49.462z M195.004,50.192h0.76v-3.769h-0.76V50.192L195.004,50.192z M195.764,45.775v-0.856h-0.76v0.856H195.764
	L195.764,45.775z M194.093,50.095V49.44c-0.337,0.134-0.667,0.201-0.991,0.201c-0.813,0-1.249-0.462-1.255-1.326
	c-0.007-0.871,0.429-1.311,1.275-1.311c0.297,0,0.575,0.045,0.879,0.149v-0.67c-0.317-0.082-0.641-0.134-0.912-0.134
	c-1.295,0-2.035,0.73-2.035,1.996c0,1.221,0.714,1.951,1.916,1.951C193.353,50.296,193.729,50.229,194.093,50.095L194.093,50.095z
	 M187.598,49.082c0-0.432,0.291-0.655,0.879-0.655h0.733v0.938c-0.251,0.194-0.548,0.283-0.892,0.283
	C187.829,49.648,187.598,49.447,187.598,49.082L187.598,49.082z M189.97,49.462v-1.728c0-0.976-0.436-1.385-1.48-1.385
	c-0.403,0-0.826,0.06-1.242,0.179l-0.007,0.618c0.423-0.104,0.799-0.149,1.103-0.149c0.614,0,0.866,0.216,0.866,0.722v0.201h-0.899
	c-0.951,0-1.48,0.439-1.48,1.236c0,0.715,0.449,1.125,1.242,1.125c0.496,0,0.912-0.156,1.216-0.469
	c0.079,0.335,0.284,0.469,0.634,0.469c0.159,0,0.304-0.037,0.476-0.097v-0.499c-0.099,0.015-0.132,0.015-0.172,0.015
	C190.069,49.7,189.97,49.633,189.97,49.462L189.97,49.462z M185.339,48.241c0,0.886-0.39,1.4-1.05,1.4
	c-0.324,0-0.641-0.112-0.945-0.32v-2.003c0.277-0.216,0.588-0.328,0.945-0.328C184.929,46.989,185.339,47.481,185.339,48.241
	L185.339,48.241z M183.29,46.423h-0.707v5.295h0.76v-1.81h0.02c0.33,0.253,0.7,0.38,1.077,0.38c1.031,0,1.691-0.804,1.691-2.063
	c0-1.162-0.608-1.877-1.592-1.877c-0.469,0-0.892,0.194-1.242,0.551h-0.007V46.423L183.29,46.423z M181.639,49.149
	c0-1.318-1.724-0.983-1.724-1.713c0-0.35,0.264-0.492,0.654-0.492c0.317,0,0.628,0.074,0.885,0.209V46.52
	c-0.205-0.082-0.548-0.171-0.938-0.171c-0.786,0-1.348,0.335-1.348,1.102c0,1.355,1.711,0.991,1.711,1.72
	c0,0.41-0.311,0.529-0.68,0.529c-0.396,0-0.74-0.104-1.057-0.238v0.633c0.344,0.149,0.766,0.201,1.077,0.201
	C181.004,50.296,181.639,49.968,181.639,49.149L181.639,49.149z M176.882,46.989c0.529,0,0.839,0.358,0.839,0.991h-1.823
	C175.917,47.377,176.3,46.989,176.882,46.989L176.882,46.989z M176.862,46.349c-1.057,0-1.738,0.775-1.738,1.966
	c0,1.244,0.7,1.981,1.903,1.981c0.429,0,0.918-0.104,1.275-0.268v-0.626c-0.443,0.171-0.806,0.261-1.143,0.261
	c-0.819,0-1.255-0.387-1.262-1.117h2.524v-0.372C178.421,47.027,177.846,46.349,176.862,46.349L176.862,46.349z M173.585,48.337
	c0,0.782-0.456,1.311-1.123,1.311c-0.681,0-1.13-0.521-1.13-1.341c0-0.804,0.462-1.311,1.13-1.311
	C173.136,46.997,173.585,47.518,173.585,48.337L173.585,48.337z M174.384,48.345c0-1.207-0.766-1.996-1.929-1.996
	c-1.13,0-1.909,0.797-1.909,1.966c0,1.177,0.76,1.981,1.876,1.981C173.565,50.296,174.384,49.492,174.384,48.345L174.384,48.345z
	 M168.266,46.989c0.529,0,0.839,0.358,0.839,0.991h-1.824C167.302,47.377,167.685,46.989,168.266,46.989L168.266,46.989z
	 M168.247,46.349c-1.057,0-1.738,0.775-1.738,1.966c0,1.244,0.7,1.981,1.903,1.981c0.429,0,0.918-0.104,1.275-0.268v-0.626
	c-0.443,0.171-0.806,0.261-1.143,0.261c-0.819,0-1.255-0.387-1.262-1.117h2.524v-0.372
	C169.806,47.027,169.231,46.349,168.247,46.349L168.247,46.349z M165.379,46.058v-0.745c-0.357-0.156-0.766-0.268-1.361-0.268
	c-1.652,0-2.696,0.938-2.696,2.674c0,1.847,1.136,2.577,2.517,2.577c0.7,0,1.282-0.127,1.738-0.328V47.54h-0.786v1.951
	c-0.225,0.052-0.495,0.089-0.865,0.089c-1.084,0-1.784-0.596-1.784-1.907c0-1.169,0.621-1.907,1.989-1.907
	C164.633,45.768,165.049,45.909,165.379,46.058L165.379,46.058z M157.629,50.192h0.766v-2.435c0-0.931-0.462-1.408-1.262-1.408
	c-0.529,0-0.991,0.216-1.354,0.544h-0.013v-0.469h-0.7v3.769h0.76v-2.852c0.271-0.209,0.621-0.328,0.958-0.328
	c0.562,0,0.846,0.268,0.846,0.842V50.192L157.629,50.192z M153.282,48.337c0,0.782-0.456,1.311-1.123,1.311
	c-0.681,0-1.13-0.521-1.13-1.341c0-0.804,0.462-1.311,1.13-1.311C152.833,46.997,153.282,47.518,153.282,48.337L153.282,48.337z
	 M154.082,48.345c0-1.207-0.766-1.996-1.929-1.996c-1.13,0-1.909,0.797-1.909,1.966c0,1.177,0.76,1.981,1.876,1.981
	C153.262,50.296,154.082,49.492,154.082,48.345L154.082,48.345z M152.311,44.606l-0.562,1.296h0.515l0.879-1.296H152.311
	L152.311,44.606z M148.492,50.192h0.76v-3.769h-0.76V50.192L148.492,50.192z M149.252,45.775v-0.856h-0.76v0.856H149.252
	L149.252,45.775z M147.581,50.095V49.44c-0.337,0.134-0.667,0.201-0.991,0.201c-0.813,0-1.249-0.462-1.255-1.326
	c-0.007-0.871,0.429-1.311,1.275-1.311c0.297,0,0.575,0.045,0.879,0.149v-0.67c-0.317-0.082-0.641-0.134-0.912-0.134
	c-1.295,0-2.035,0.73-2.035,1.996c0,1.221,0.714,1.951,1.916,1.951C146.841,50.296,147.217,50.229,147.581,50.095L147.581,50.095z
	 M141.086,49.082c0-0.432,0.291-0.655,0.879-0.655h0.733v0.938c-0.251,0.194-0.548,0.283-0.892,0.283
	C141.317,49.648,141.086,49.447,141.086,49.082L141.086,49.082z M143.458,49.462v-1.728c0-0.976-0.436-1.385-1.48-1.385
	c-0.403,0-0.826,0.06-1.242,0.179l-0.007,0.618c0.423-0.104,0.799-0.149,1.103-0.149c0.614,0,0.866,0.216,0.866,0.722v0.201H141.8
	c-0.951,0-1.48,0.439-1.48,1.236c0,0.715,0.449,1.125,1.242,1.125c0.496,0,0.912-0.156,1.216-0.469
	c0.079,0.335,0.284,0.469,0.634,0.469c0.159,0,0.304-0.037,0.476-0.097v-0.499c-0.099,0.015-0.132,0.015-0.172,0.015
	C143.557,49.7,143.458,49.633,143.458,49.462L143.458,49.462z M138.12,46.349c-0.482,0-0.918,0.201-1.321,0.603
	c-0.198-0.387-0.595-0.603-1.13-0.603c-0.423,0-0.852,0.186-1.249,0.544h-0.013v-0.469h-0.7v3.769h0.76v-2.852
	c0.264-0.216,0.575-0.328,0.885-0.328c0.548,0,0.813,0.29,0.813,0.894v2.286h0.76v-2.644c0-0.074-0.013-0.142-0.026-0.201
	c0.251-0.209,0.581-0.335,0.905-0.335c0.555,0,0.813,0.313,0.813,0.894v2.286h0.76v-2.435
	C139.375,46.825,138.945,46.349,138.12,46.349L138.12,46.349z M132.874,47.138v-0.789c-0.509,0-0.899,0.208-1.387,0.752h-0.02
	v-0.678h-0.7v3.769h0.76v-2.569C131.922,47.31,132.405,47.138,132.874,47.138L132.874,47.138z M128.982,48.337
	c0,0.782-0.456,1.311-1.123,1.311c-0.681,0-1.13-0.521-1.13-1.341c0-0.804,0.462-1.311,1.13-1.311
	C128.533,46.997,128.982,47.518,128.982,48.337L128.982,48.337z M129.782,48.345c0-1.207-0.766-1.996-1.929-1.996
	c-1.13,0-1.909,0.797-1.909,1.966c0,1.177,0.76,1.981,1.876,1.981C128.962,50.296,129.782,49.492,129.782,48.345L129.782,48.345z
	 M123.783,46.423h-0.661v0.603h0.661v3.165h0.766v-3.165h0.978v-0.603h-0.978v-0.357c0-0.477,0.218-0.737,0.687-0.737
	c0.152,0,0.304,0.022,0.502,0.074v-0.648c-0.198-0.052-0.423-0.082-0.634-0.082c-0.865,0-1.321,0.447-1.321,1.348V46.423
	L123.783,46.423z M121.563,50.192h0.766v-2.435c0-0.931-0.462-1.408-1.262-1.408c-0.529,0-0.991,0.216-1.354,0.544H119.7v-0.469
	h-0.7v3.769h0.76v-2.852c0.271-0.209,0.621-0.328,0.958-0.328c0.562,0,0.846,0.268,0.846,0.842V50.192L121.563,50.192z
	 M116.885,45.15v5.042h0.793V45.15H116.885L116.885,45.15z M112.379,46.989c0.529,0,0.839,0.358,0.839,0.991h-1.823
	C111.415,47.377,111.798,46.989,112.379,46.989L112.379,46.989z M112.36,46.349c-1.057,0-1.738,0.775-1.738,1.966
	c0,1.244,0.7,1.981,1.903,1.981c0.429,0,0.918-0.104,1.275-0.268v-0.626c-0.443,0.171-0.806,0.261-1.143,0.261
	c-0.819,0-1.255-0.387-1.262-1.117h2.524v-0.372C113.919,47.027,113.344,46.349,112.36,46.349L112.36,46.349z M106.876,48.352
	c0-0.834,0.416-1.363,1.064-1.363c0.324,0,0.621,0.104,0.932,0.343v1.951c-0.258,0.223-0.608,0.357-0.945,0.357
	C107.266,49.641,106.876,49.164,106.876,48.352L106.876,48.352z M106.09,48.36c0,1.199,0.595,1.929,1.586,1.929
	c0.443,0,0.879-0.194,1.242-0.544h0.007v0.447h0.707v-5.414h-0.76v1.981h-0.013c-0.324-0.283-0.661-0.41-1.084-0.41
	C106.724,46.349,106.09,47.108,106.09,48.36L106.09,48.36z M103.5,49.149c0-1.318-1.724-0.983-1.724-1.713
	c0-0.35,0.264-0.492,0.654-0.492c0.317,0,0.628,0.074,0.885,0.209V46.52c-0.205-0.082-0.548-0.171-0.938-0.171
	c-0.786,0-1.348,0.335-1.348,1.102c0,1.355,1.711,0.991,1.711,1.72c0,0.41-0.311,0.529-0.68,0.529c-0.396,0-0.74-0.104-1.057-0.238
	v0.633c0.344,0.149,0.766,0.201,1.077,0.201C102.866,50.296,103.5,49.968,103.5,49.149L103.5,49.149z M97.547,49.082
	c0-0.432,0.291-0.655,0.879-0.655h0.733v0.938c-0.251,0.194-0.548,0.283-0.892,0.283C97.778,49.648,97.547,49.447,97.547,49.082
	L97.547,49.082z M99.919,49.462v-1.728c0-0.976-0.436-1.385-1.48-1.385c-0.403,0-0.826,0.06-1.242,0.179l-0.007,0.618
	c0.423-0.104,0.799-0.149,1.103-0.149c0.614,0,0.866,0.216,0.866,0.722v0.201h-0.899c-0.951,0-1.48,0.439-1.48,1.236
	c0,0.715,0.449,1.125,1.242,1.125c0.496,0,0.912-0.156,1.216-0.469c0.079,0.335,0.284,0.469,0.634,0.469
	c0.159,0,0.304-0.037,0.476-0.097v-0.499c-0.099,0.015-0.132,0.015-0.172,0.015C100.018,49.7,99.919,49.633,99.919,49.462
	L99.919,49.462z M95.05,50.192h0.76v-3.769h-0.76V50.192L95.05,50.192z M95.809,45.775v-0.856h-0.76v0.856H95.809L95.809,45.775z
	 M94.138,50.095V49.44c-0.337,0.134-0.667,0.201-0.991,0.201c-0.813,0-1.249-0.462-1.255-1.326
	c-0.007-0.871,0.429-1.311,1.275-1.311c0.297,0,0.575,0.045,0.879,0.149v-0.67c-0.317-0.082-0.641-0.134-0.912-0.134
	c-1.295,0-2.035,0.73-2.035,1.996c0,1.221,0.714,1.951,1.916,1.951C93.398,50.296,93.775,50.229,94.138,50.095L94.138,50.095z
	 M89.368,50.192h0.766v-2.435c0-0.931-0.463-1.408-1.262-1.408c-0.529,0-0.991,0.216-1.354,0.544h-0.013v-0.469h-0.7v3.769h0.76
	v-2.852c0.271-0.209,0.621-0.328,0.958-0.328c0.562,0,0.846,0.268,0.846,0.842V50.192L89.368,50.192z M84.281,46.989
	c0.529,0,0.839,0.358,0.839,0.991h-1.824C83.316,47.377,83.699,46.989,84.281,46.989L84.281,46.989z M84.261,46.349
	c-1.057,0-1.738,0.775-1.738,1.966c0,1.244,0.7,1.981,1.903,1.981c0.429,0,0.918-0.104,1.275-0.268v-0.626
	c-0.443,0.171-0.806,0.261-1.143,0.261c-0.819,0-1.255-0.387-1.262-1.117h2.524v-0.372C85.82,47.027,85.245,46.349,84.261,46.349
	L84.261,46.349z M80.772,50.192h0.76v-3.769h-0.76V50.192L80.772,50.192z M81.532,45.775v-0.856h-0.76v0.856H81.532L81.532,45.775z
	 M79.755,45.999v-0.752c-0.383-0.119-0.832-0.201-1.381-0.201c-1.361,0-2.577,0.819-2.577,2.651c0,1.504,0.806,2.599,2.663,2.599
	c0.568,0,1.024-0.082,1.401-0.201v-0.73c-0.476,0.156-0.839,0.209-1.268,0.209c-1.368,0-1.962-0.789-1.962-1.907
	c0-1.177,0.727-1.899,1.909-1.899C78.969,45.768,79.372,45.865,79.755,45.999z"/>
<g id="centrogeo">
	<path class="st1" d="M216.67,21.481c0,2.89-1.899,4.844-4.679,4.844c-2.835,0-4.707-1.927-4.707-4.954
		c0-2.973,1.927-4.844,4.707-4.844C214.798,16.527,216.67,18.454,216.67,21.481L216.67,21.481z M220,21.509
		c0-4.459-3.193-7.376-8.037-7.376c-4.707,0-7.954,2.945-7.954,7.266c0,4.349,3.165,7.321,7.817,7.321
		C216.587,28.72,220,25.747,220,21.509L220,21.509z M195.627,16.499c2.202,0,3.495,1.321,3.495,3.661h-7.597
		C191.608,17.931,193.204,16.499,195.627,16.499L195.627,16.499z M195.544,14.132c-4.404,0-7.239,2.863-7.239,7.266
		c0,4.596,2.917,7.321,7.927,7.321c1.789,0,3.826-0.385,5.312-0.991v-2.312c-1.844,0.633-3.358,0.963-4.762,0.963
		c-3.413,0-5.23-1.431-5.257-4.129h10.514v-1.376C202.04,16.637,199.645,14.132,195.544,14.132L195.544,14.132z M184.712,13.059
		v-2.752c-1.486-0.578-3.193-0.991-5.67-0.991c-6.881,0-11.23,3.468-11.23,9.881c0,6.826,4.734,9.523,10.487,9.523
		c2.917,0,5.34-0.468,7.239-1.211v-8.973h-3.275v7.211c-0.936,0.193-2.064,0.33-3.606,0.33c-4.514,0-7.431-2.202-7.431-7.046
		c0-4.321,2.587-7.046,8.285-7.046C181.602,11.986,183.336,12.508,184.712,13.059z"/>
	<path class="st2" d="M162.376,21.481c0,2.89-1.899,4.844-4.679,4.844c-2.835,0-4.707-1.927-4.707-4.954
		c0-2.973,1.927-4.844,4.707-4.844C160.504,16.527,162.376,18.454,162.376,21.481L162.376,21.481z M165.706,21.509
		c0-4.459-3.193-7.376-8.037-7.376c-4.707,0-7.954,2.945-7.954,7.266c0,4.349,3.165,7.321,7.817,7.321
		C162.293,28.72,165.706,25.747,165.706,21.509L165.706,21.509z M148.874,17.05v-2.918c-2.119,0-3.743,0.771-5.78,2.78h-0.083
		v-2.505h-2.917v13.927h3.165v-9.496C144.911,17.683,146.92,17.05,148.874,17.05L148.874,17.05z M132.29,24.509v-7.872h5.119v-2.229
		h-5.119v-3.826h-3.193v3.826h-2.807v2.229h2.807v7.817c0,2.807,1.651,4.266,4.707,4.266c1.101,0,2.477-0.165,3.385-0.385v-2.367
		c-0.963,0.248-1.789,0.358-2.505,0.358C133.061,26.325,132.29,25.775,132.29,24.509L132.29,24.509z M121.238,28.335h3.193v-9
		c0-3.44-1.927-5.202-5.257-5.202c-2.202,0-4.129,0.798-5.642,2.009h-0.055v-1.734h-2.918v13.927h3.165V17.793
		c1.128-0.771,2.587-1.211,3.991-1.211c2.34,0,3.523,0.991,3.523,3.11V28.335L121.238,28.335z M101.158,16.499
		c2.202,0,3.495,1.321,3.495,3.661h-7.597C97.14,17.931,98.736,16.499,101.158,16.499L101.158,16.499z M101.076,14.132
		c-4.404,0-7.239,2.863-7.239,7.266c0,4.596,2.918,7.321,7.927,7.321c1.789,0,3.826-0.385,5.312-0.991v-2.312
		c-1.844,0.633-3.358,0.963-4.762,0.963c-3.413,0-5.23-1.431-5.257-4.129h10.514v-1.376
		C107.571,16.637,105.177,14.132,101.076,14.132L101.076,14.132z M91.813,12.839v-2.78c-1.596-0.44-3.468-0.743-5.752-0.743
		c-5.67,0-10.734,3.028-10.734,9.798c0,5.56,3.358,9.606,11.092,9.606c2.367,0,4.266-0.303,5.835-0.743V25.28
		c-1.982,0.578-3.495,0.771-5.285,0.771c-5.697,0-8.175-2.917-8.175-7.046c0-4.349,3.028-7.019,7.954-7.019
		C88.538,11.986,90.217,12.343,91.813,12.839z"/>
</g>
<circle class="st4" cx="34" cy="34" r="34"/>
<path id="plasta" class="st3" d="M30.603,0.185L30.603,0.185L30.603,0.185L30.603,0.185C30.603,0.185,30.603,0.185,30.603,0.185
	c-0.003,0-0.005,0.001-0.005,0.001C30.598,0.187,30.602,0.185,30.603,0.185L30.603,0.185z M27.975,0.546L27.975,0.546
	c0.016-0.003,0.037-0.008,0.053-0.011c-0.014,0.002-0.032,0.005-0.046,0.007c-0.331,0.055-1.229,0.242-1.316,0.274
	c0.043,0,0.083-0.015,0.125-0.021C26.786,0.797,26.78,0.8,26.775,0.801c0.238-0.049,0.473-0.109,0.711-0.158
	c-0.012,0.003-0.023,0.005-0.035,0.008c0.005-0.001,0.011-0.002,0.016-0.003c-0.111,0.025-0.178,0.041-0.264,0.062
	c0.222-0.037,0.44-0.093,0.66-0.14C27.9,0.561,27.938,0.554,27.975,0.546L27.975,0.546z M31.633,0.269L31.633,0.269
	C31.595,0.23,31.595,0.23,30.381,0.36c-0.02,0.001-0.02,0.001-0.05-0.006c-0.049-0.017-0.049-0.017-0.171-0.004
	c0.061-0.013,0.142-0.031,0.203-0.044c-0.253,0.021-0.508,0.017-0.761,0.041l-0.02,0.012c-0.003,0.003-0.006,0.007-0.009,0.01
	c0.018,0.015,0.021,0.018,0.141,0.006c0,0,0,0,0,0l0,0c0,0,0,0,0,0c0,0,0,0,0,0l0,0c0,0,0,0,0,0l0,0c0,0,0,0,0,0
	c0.189-0.022,0.196-0.023,0.213-0.004c0.015,0,0.034,0,0.049-0.001c-0.098,0.054-0.1,0.056-0.12,0.083
	c0.012,0.013,0.031,0.034,0.187,0.024c0.054-0.003,0.126-0.009,0.179-0.014c0.05-0.005,0.081-0.021,0.114-0.039
	c0.004-0.002,0.008-0.006,0.012-0.006c0.034-0.002,0.06,0.025,0.093,0.023c0.214-0.012,0.425-0.042,0.638-0.063
	c0.11-0.024,0.11-0.024,0.149-0.02c-0.004,0.003-0.008,0.007-0.012,0.01c0.003,0,0.361-0.027,0.413-0.04
	c-0.01-0.004-0.024-0.011-0.033-0.017c0.002-0.004,0.005-0.009,0.007-0.012c-0.003,0.001-0.008,0.002-0.011,0.003
	c0.005-0.006,0.013-0.012,0.02-0.015c-0.002,0.004-0.006,0.008-0.008,0.012c0.011-0.003,0.022-0.007,0.034-0.01
	C31.64,0.281,31.637,0.274,31.633,0.269L31.633,0.269z M28.196,0.6c-0.113,0.034-0.267,0.081-0.37,0.102
	c-0.013,0.003-0.031,0.006-0.044,0.009c-0.052,0.01-0.104,0.01-0.157,0.015c-0.322,0.035-0.628,0.153-0.95,0.19
	c0.254-0.08,0.254-0.08,0.345-0.094c0.027-0.009,0.054-0.017,0.074-0.024c-0.049,0.008-0.049,0.008-0.057,0.006
	c0.029-0.017,0.064-0.019,0.093-0.035c-0.291,0.079-0.305,0.081-0.347,0.076c-0.031,0.002-0.073,0.005-0.105,0.007
	c0.062-0.016,0.125-0.032,0.188-0.048c0.648-0.161,0.685-0.16,0.753-0.157c-0.039,0.02-0.041,0.025-0.045,0.035
	c0.041,0.029,0.254-0.034,0.256-0.035c-0.01,0.002-0.021,0.004-0.031,0.005c0.003-0.001,0.007-0.003,0.01-0.005
	c0.22-0.078,0.22-0.078,0.451-0.121c0.009-0.001,0.02-0.003,0.029-0.004c-0.22,0.072-0.22,0.072-0.225,0.083
	c0.082-0.008,0.162-0.035,0.244-0.038C28.275,0.577,28.23,0.59,28.196,0.6L28.196,0.6L28.196,0.6z M29.145,0.501L29.145,0.501
	l0.085-0.023c0.046-0.028,0.103-0.036,0.137-0.083c-0.005-0.002-0.005-0.002-0.019,0c-0.335,0.048-0.335,0.048-0.352,0.063
	c0.004,0,0.004,0,0.018-0.002c-0.015,0.017-0.046,0.029-0.046,0.029c0,0-0.021-0.001-0.026-0.013
	c-0.011-0.028-0.08-0.003-0.125,0.013c-0.085,0.03-0.085,0.03-0.102,0.024c0.001-0.014,0.014-0.019,0.02-0.029
	c-0.04-0.015-0.169,0.017-0.209,0.058c0,0.002,0,0.004,0,0.006c0.028,0.016,0.122,0.005,0.327-0.02
	c-0.04,0.021-0.083,0.039-0.083,0.04c0.005-0.006,0.005-0.006,0.055-0.035c-0.02,0.003-0.103,0.046-0.112,0.054
	c0.016,0.016,0.331-0.039,0.334-0.039C29.081,0.534,29.111,0.511,29.145,0.501L29.145,0.501z M29.385,0.53
	c-0.005,0.001-0.011,0.001-0.016,0.002c-0.026-0.01-0.062-0.023-0.088-0.033c0.103-0.018,0.203-0.048,0.306-0.065
	c0.096-0.012,0.101,0.008,0.069,0.069L29.385,0.53L29.385,0.53L29.385,0.53z M31.673,0.291L31.673,0.291
	c-0.001-0.001-0.009-0.005-0.021-0.005c0,0,0.001,0,0.001,0C31.67,0.294,31.673,0.293,31.673,0.291
	C31.673,0.292,31.673,0.291,31.673,0.291L31.673,0.291z M26.058,1.087L26.058,1.087c0.018-0.006,0.043-0.014,0.061-0.02
	c-0.007,0-0.017-0.001-0.024-0.001c0.018-0.015,0.018-0.015,0.067-0.04c-0.092-0.05-0.168,0.038-0.255,0.029
	c0.001-0.004,0.002-0.01,0.003-0.014c-0.012-0.01-0.012-0.01-0.058-0.002c-0.594,0.118-1.792,0.545-1.927,0.593
	c0.085-0.027,0.093-0.027,0.115-0.028c-0.078,0.064-0.172,0.099-0.258,0.149c0.156,0.003,0.289-0.08,0.435-0.118
	c0.527-0.154,1.048-0.329,1.577-0.476C25.965,1.117,25.965,1.117,26.058,1.087L26.058,1.087z M37.151,67.76l0.028-0.009l0.096-0.03
	L37.151,67.76L37.151,67.76z M14.568,6.09L14.568,6.09l0.002-0.001l0.001-0.001l0.001-0.001L14.568,6.09L14.568,6.09z M14.51,6.131
	L14.51,6.131l0.058-0.041l-0.133,0.093l0.02-0.014C14.472,6.158,14.494,6.142,14.51,6.131L14.51,6.131z M22.303,2.813
	c0.021-0.013,0.049-0.029,0.069-0.042c-0.537,0.197-0.537,0.197-0.572,0.167c0.016-0.042,0.082-0.083,0.083-0.084
	c0.039-0.02,0.084-0.006,0.124-0.021c0.076-0.03,0.145-0.075,0.218-0.111c-0.179,0.035-0.314,0.075-0.687,0.193
	c-0.245,0.078-0.496,0.134-0.742,0.212c0,0-0.084,0.053-0.128,0.087c0.012,0.002,0.012,0.002,0.112-0.027
	c0.568-0.165,0.568-0.165,0.632-0.136c-0.134,0.054-0.313,0.126-0.447,0.18c-0.149,0.067-0.297,0.137-0.446,0.205
	c-0.019,0.008-0.037,0.017-0.056,0.026c0.078-0.013,0.159,0.001,0.236-0.026c0.211-0.077,0.404-0.2,0.625-0.25
	c-0.057,0.037-0.114,0.074-0.171,0.111c-0.177,0.047-0.189,0.053-0.393,0.153c0.186-0.039,0.357-0.126,0.54-0.178
	c0.085-0.056,0.17-0.111,0.255-0.166C21.893,3.053,21.914,3.05,22.303,2.813L22.303,2.813L22.303,2.813z M32.053,9.419
	c0.038,0.007,0.089,0.015,0.128,0.021c-0.068-0.275-0.221-0.519-0.288-0.794c-0.125,0.023-0.24,0.097-0.374,0.072
	c-0.228-0.042-0.285-0.103-0.337-0.178c-0.101-0.147-0.156-0.157-0.66-0.126c0,0-0.001,0-0.001,0c0,0-0.001,0-0.001,0
	c0,0-0.001,0-0.001,0c0,0-0.001,0-0.001,0c0,0-0.001,0-0.001,0c0,0-0.001,0-0.001,0c0,0-0.001,0-0.001,0c0,0-0.001,0-0.001,0
	c-0.229,0.024-0.457,0.051-0.685,0.074c-0.046,0.133-0.054,0.147-0.093,0.16c-0.054,0.002-0.101,0.004-0.176,0.051
	c-0.385,0.237-0.821,0.376-1.201,0.623c-0.282,0.183-0.282,0.183-0.44,0.445c0.062-0.032,0.192-0.097,0.34-0.141
	c0.11-0.033,0.11-0.033,0.509,0.008c0.584,0.06,0.959-0.424,1.468-0.56c-0.277,0.358-0.277,0.358-0.29,0.393
	c0.069-0.036,0.232-0.122,0.31-0.124c0.05-0.001,0.083-0.002,0.138,0.07c0.076,0.099,0.145,0.163,0.409,0.141
	c0.349-0.029,0.66-0.236,1.019-0.222C31.906,9.338,31.971,9.403,32.053,9.419L32.053,9.419L32.053,9.419z M35,10.129L35,10.129
	c0.003,0.032,0.001,0.074,0.002,0.106c-0.359-0.013-0.657-0.225-0.997-0.3c0.267,0.268,0.267,0.268,0.27,0.303
	c-0.115,0.135-0.154,0.18-0.213,0.402c-0.079,0.363-0.079,0.363-0.181,0.478c-0.195-0.055-0.195-0.055-0.512-0.548
	c-0.454,0.294-0.454,0.294-0.595,0.348c0.267-0.742,0.267-0.742,0.18-0.851c-0.218-0.274-0.599-0.253-1.04-0.229
	c-0.036,0.134-0.099,0.26-0.109,0.401c-0.103,0.051-0.225,0.032-0.325,0.091c-0.091,0.053-0.117,0.092-0.177,0.201
	c-0.148,0.27-0.083,0.527-0.007,0.823c0.154,0.604,0.029,0.76-0.707,0.88c-0.249-0.756-0.264-0.801-0.15-1.275
	c0.026-0.15,0.122-0.365,0.057-0.503c-0.039-0.083-0.022-0.137-0.022-0.138c0.04-0.128,0.104-0.205,0.263-0.315
	c0.337-0.234,1.104-0.299,1.563-0.337c0.039-0.004,0.049-0.009,0.103-0.035c0.196-0.095,0.742-0.301,1.584-0.156
	C34.962,9.641,34.987,9.959,35,10.129L35,10.129z M31.842,10.247c0-0.002-0.001-0.009-0.036-0.001
	c0.001,0.002,0.002,0.004,0.003,0.006C31.819,10.265,31.841,10.254,31.842,10.247L31.842,10.247L31.842,10.247z M35.767,11.137
	c0.014-0.024,0.031-0.058,0.044-0.083c-0.37,0.033-0.376,0.035-0.521,0.1c-0.003,0.001-0.326,0.143-0.501,0.164
	c-0.048,0.003-0.085-0.044-0.136-0.031c-0.037,0.01-0.112,0.038-0.369,0.167c-0.579,0.292-0.579,0.292-0.833,0.309
	c-0.112,0.008-0.145,0.01-0.241,0.019c0.141,0.279,0.299,0.409,0.73,0.3c0.153-0.039,1.362-0.563,1.463-0.615
	C35.618,11.357,35.714,11.225,35.767,11.137L35.767,11.137L35.767,11.137z M28.727,0.898c-0.062,0.044-0.126,0.065-0.208,0.091
	C28.382,1.02,28.201,1.1,28.06,1.091c-0.066-0.004-0.095-0.07-0.153-0.088c-0.052-0.017-0.107,0.004-0.16-0.014
	c-0.006-0.002-0.013-0.005-0.018-0.007c-0.018-0.008-0.006-0.027-0.01-0.04c-0.002,0-0.005,0.001-0.007,0.001
	c0.125-0.081,0.219-0.055,0.22-0.055c0.098,0.032,0.1,0.033,0.297-0.053c-0.073-0.01-0.073-0.01-0.136-0.004
	c0.031-0.017,0.063-0.034,0.094-0.051c0.096-0.021,0.602-0.115,0.604-0.115c0.045-0.006,0.089,0.011,0.134,0.008
	c-0.149,0.074-0.149,0.074-0.356,0.121c0.131,0.023,0.131,0.023,0.15,0.049c0.063-0.062,0.063-0.062,0.131-0.081
	C28.812,0.818,28.783,0.859,28.727,0.898L28.727,0.898L28.727,0.898z M27.313,1.401L27.313,1.401
	c0.009-0.007,0.021-0.016,0.03-0.024c-0.181,0.006-0.351-0.06-0.528-0.077c0.195-0.095,0.332-0.283,0.55-0.343
	c0.038-0.01,0.206-0.061,0.206-0.061c0.031-0.017,0.043-0.034,0.053-0.048c-0.029-0.006-0.029-0.006-0.07,0
	c-0.244,0.044-0.244,0.044-0.295,0.109c-0.195,0.009-0.195,0.009-0.265,0.016c-0.187,0.083-0.33,0.255-0.551,0.266
	c-0.001-0.006-0.003-0.013-0.005-0.018c0.064-0.047,0.14-0.076,0.195-0.135c-0.001,0-0.113-0.034-0.179,0.026
	c-0.097,0.092-0.21,0.039-0.214,0.037c0.002-0.006,0.004-0.014,0.005-0.019c-0.158-0.03-0.289,0.065-0.434,0.096
	c0.107-0.046,0.217-0.084,0.325-0.127c-0.206,0.036-0.406,0.095-0.611,0.134c0,0,0,0,0,0c0,0,0,0,0,0l0,0c0,0,0,0,0,0c0,0,0,0,0,0
	l0,0c0,0,0,0,0,0l0,0l-0.381,0.12c-0.154,0.057-0.31,0.106-0.464,0.162c0.001,0.001,0.003,0.003,0.004,0.004
	c0.011,0.02,0.011,0.02,0.372-0.043c-0.028,0.012-0.056,0.025-0.085,0.037c-0.004,0.001-0.472,0.097-0.595,0.166
	c0.003,0.006,0.006,0.014,0.009,0.02c0.043,0.002,0.043,0.002,0.612-0.09c0.077-0.007,0.154,0.003,0.23-0.007
	c-0.114,0.046-0.114,0.046-0.512,0.105c0,0,0,0,0,0c0,0,0,0,0,0c0,0,0,0,0,0c0,0,0,0,0,0c0,0,0,0,0,0c0,0,0,0,0,0c0,0,0,0,0,0
	c0,0,0,0,0,0c-0.45,0.077-0.699,0.12-0.778,0.265c0.139,0.047,0.266-0.045,0.402-0.034c0,0.006-0.001,0.014-0.002,0.02
	c-0.048,0.039-0.103,0.07-0.149,0.112c0.052,0.03,0.052,0.03,0.205,0.003c0.23-0.041,0.605-0.128,0.907-0.199
	c0.195-0.046,0.371-0.153,0.57-0.185C25.876,1.689,25.89,1.697,25.9,1.7c0.259,0.076,0.465,0.062,0.592,0.038
	c0.186-0.036,0.286-0.077,0.427-0.151c-0.063-0.04-0.075-0.042-0.286,0.036c0.167-0.1,0.295-0.158,0.416-0.139
	C27.181,1.504,27.181,1.504,27.313,1.401L27.313,1.401z M26.25,1.145c-0.001,0-0.002-0.002-0.002-0.009c0,0,0.001,0,0.001,0
	c0,0,0.001,0,0.001,0C26.252,1.138,26.251,1.145,26.25,1.145L26.25,1.145L26.25,1.145z M27.702,0.95L27.702,0.95
	c0.004-0.002,0.007-0.004,0.011-0.007c0,0,0,0-0.001,0c-0.007,0.003-0.013,0.007-0.014,0.008C27.7,0.952,27.701,0.951,27.702,0.95
	L27.702,0.95z M33.183,0.992L33.183,0.992c-0.001,0-0.001,0.001-0.001,0.001C33.182,0.993,33.183,0.993,33.183,0.992L33.183,0.992z
	 M32.111,0.053c0.106-0.006,0.201-0.011,0.288-0.015l0.009,0l0.239-0.011l0.02-0.001l0.003,0l0.016-0.001l0.002,0l0.007,0l0.009,0
	l0.002,0l0.006,0l0.008,0l0.003,0c0.088-0.003,0.17-0.006,0.252-0.008l0.001,0l0.01,0l0.005,0l0.005,0
	c0.074-0.002,0.172-0.005,0.317-0.008l0.002,0l0.002,0l0.009,0l0.116-0.002l0.009,0l0.002,0c0.077-0.001,0.163-0.002,0.252-0.003
	C33.816,0,33.967,0,34.235,0c0.249,0.002,0.547,0.008,0.835,0.017c0.145,0.005,0.332,0.012,0.588,0.022l0.136,0.007
	c0.34,0.019,0.743,0.051,1.058,0.071c0.324,0.03,0.736,0.075,1.466,0.154c0.162,0.024,0.334,0.051,0.512,0.078
	c0.842,0.135,1.819,0.315,2.583,0.463l0.356,0.082l0,0c0.024,0.008,0.053,0.023,0.076,0.033c0.02,0.009,0.048,0.021,0.068,0.029
	c-0.089-0.016-0.089-0.016-0.351-0.073c0.208,0.053,0.91,0.24,1.179,0.421c0.004,0.025,0.01,0.058,0.014,0.083
	c-0.299-0.112-0.299-0.112-0.389-0.13c0.111,0.044,0.224,0.085,0.336,0.128c-0.08-0.003-0.163-0.006-0.248-0.009
	c0.144,0.054,0.144,0.054,0.199,0.116c-0.022-0.001-0.052-0.003-0.074-0.004l0.34,0.084c0.019,0.008,1.985,0.964,2.189,1.289
	c-0.521,0.041-0.955-0.491-1.51-0.227c-1.646-0.869-3.532-1.066-5.204-1.86c0.212,0.024,0.212,0.024,0.35,0.023
	c-0.176-0.056-0.349-0.12-0.526-0.171l-0.024-0.003c-0.23-0.026-0.537-0.06-0.767-0.086c0.311,0.054,0.359,0.059,0.512,0.069
	c0.061,0.017,0.122,0.035,0.14,0.055c-0.033,0.012-0.033,0.012-0.548-0.015c-0.114-0.035-0.228-0.069-0.343-0.102
	c0.051-0.002,0.101-0.003,0.151-0.005c-0.106-0.02-0.246-0.048-0.352-0.068c0.251-0.001,0.5,0.03,0.751,0.032
	c-0.044-0.01-0.104-0.022-0.149-0.03c-0.412-0.049-0.834,0.022-1.238-0.113c0.011-0.01,0.025-0.024,0.035-0.035
	c-0.13,0.004-0.13,0.004-0.513-0.066c0.05,0.002,0.117,0.006,0.167,0.011c-0.148-0.035-0.301-0.04-0.451-0.063
	c-0.644-0.083-1.549-0.174-2.202-0.136c-0.006,0-0.713,0.036-1.087,0.021c0.066-0.009,0.154-0.024,0.22-0.035
	c-0.003,0-0.337,0.034-0.652,0.018c0.152-0.017,0.152-0.017,0.219-0.021l-0.005,0L32.111,0.053L32.111,0.053z M31.509,0.092l0.001,0
	l0.001,0c0.017-0.001,0.033-0.002,0.05-0.004l-0.046,0.003l-0.003,0l-0.001,0L31.509,0.092L31.509,0.092z M30.181,0.216
	c0.111-0.012,0.219-0.024,0.315-0.034l0.006-0.001c0.092-0.009,0.183-0.018,0.275-0.027l0,0l0.051-0.005l0.001,0v0
	c0.057-0.003,0.131-0.012,0.19-0.017l0.003,0l0.001,0l0.002,0l0.208-0.018h0l0.005,0l0.002,0l0.003,0
	c0.079-0.006,0.177-0.014,0.263-0.02l-0.043,0.003l-0.002,0h0c-0.013,0.001-0.027,0.003-0.04,0.004
	c0.072-0.003,0.143-0.007,0.215-0.01c0.01,0.002,0.025,0.004,0.032,0.011c-0.017,0.006-0.027,0.01-0.145,0.02
	c0.002,0.001,0.006,0.001,0.008,0.002c0.006,0.002,0.013,0.006,0.018,0.009c-0.011,0.008-0.012,0.008-0.076,0.013
	c0.063,0.015,0.063,0.015,0.172,0.003c0.016,0.005,0.032,0.01,0.049,0.015c-0.172,0.042-0.172,0.042-0.382,0.043
	c-0.316,0.024-0.316,0.024-0.379,0.039c-0.173,0.014-0.403,0.035-0.575,0.05c0.021-0.013,0.021-0.013,0.288-0.068
	c-0.04-0.005-0.045-0.008-0.057-0.014c-0.001-0.003-0.001-0.006-0.002-0.008c0.098-0.009,0.098-0.009,0.282-0.006
	c-0.037-0.018-0.037-0.018-0.22-0.011c0.037-0.014,0.079-0.01,0.115-0.027c0,0,0-0.001-0.001-0.001
	c-0.048,0.007-0.048,0.007-0.132,0.016c-0.026,0.009-0.026,0.009-0.039,0.012c-0.003,0-0.264,0.046-0.359,0.038
	c-0.013-0.001-0.031-0.001-0.044-0.003c0.056-0.014,0.114-0.017,0.172-0.025c0.006-0.001,0.014-0.002,0.02-0.003
	C30.312,0.202,30.247,0.211,30.181,0.216L30.181,0.216z M29.427,0.311c0.067-0.009,0.13-0.018,0.189-0.026
	c-0.003,0.001-0.006,0.001-0.009,0.002c0.024-0.003,0.048-0.007,0.073-0.01c-0.046,0.016-0.107,0.037-0.155,0.043l0,0
	c-0.081,0.009-0.082,0.008-0.085,0.007c0.008-0.003,0.017-0.004,0.025-0.008c-0.09-0.003-0.176,0.029-0.265,0.033
	c0.012-0.004,0.062-0.014,0.086-0.018c0.034-0.004,0.069-0.009,0.104-0.013c0.016-0.003,0.031-0.006,0.047-0.01L29.427,0.311
	L29.427,0.311z M14.865,5.886l0.006-0.004l0.906-0.596c0.214-0.133,0.406-0.252,0.582-0.36c0.499-0.301,1.035-0.608,1.48-0.85
	l0.002-0.001c0.613-0.321,1.356-0.671,2.695-1.304l0.026-0.011c0.685-0.226,1.382-0.413,2.059-0.663l0.098-0.039
	c-0.001,0.026-0.001,0.06-0.002,0.086c0.102-0.038,0.237-0.088,0.339-0.125l-0.26,0.15c0.206-0.071,0.206-0.071,1.198-0.046
	c-0.051,0.03-0.102,0.06-0.152,0.09c-0.101,0.037-0.236,0.086-0.337,0.123c0.326-0.019,0.326-0.019,1.106-0.18
	c0.202,0.044,0.202,0.044,0.884-0.18c-0.108-0.038-0.268,0.006-0.382,0.018c0.868-0.305,1.829,0,2.68-0.411
	c-0.122,0.004-0.284,0.009-0.405,0.013c0.271-0.104,0.684-0.221,0.96-0.129c-0.116,0.088-0.304,0.152-0.441,0.2
	c0.084,0.061,0.196,0.143,0.28,0.204c0.166-0.139,0.411-0.299,0.607-0.391c-0.009-0.043-0.02-0.1-0.029-0.143
	c-0.094-0.046-0.219-0.108-0.313-0.154c0.552-0.507,0.613-0.519,1.085-0.608c0.07,0.028,0.164,0.065,0.235,0.092
	c-0.204,0.045-0.471,0.127-0.665,0.203c-0.017,0.018-0.034,0.037,0.069,0.051c0.015,0.1,0.034,0.234,0.049,0.334l0.461,0.01
	l-0.048,0.222c0.14-0.068,0.326-0.158,0.466-0.226c0.055,0.091,0.128,0.212,0.183,0.303c0.106-0.004,0.247-0.008,0.353-0.012
	c-0.016-0.046-0.037-0.107-0.052-0.153c0.319-0.121,0.586-0.353,0.925-0.431c-0.848,0.061-1.225,0.036-1.475,0.019
	c0.109-0.036,0.254-0.085,0.363-0.121c-0.085-0.059-0.198-0.138-0.283-0.197c0.217-0.138,0.419-0.161,0.823-0.206
	c-0.064,0.081-0.15,0.19-0.214,0.271c0.101,0.012,0.236,0.029,0.338,0.042c-0.003-0.018-0.007-0.035-0.221-0.084
	c0.171-0.135,0.465-0.235,0.682-0.254c0.129,0.03,0.299,0.079,0.427,0.115l0.259-0.046c-0.116-0.057-0.287-0.088-0.412-0.119
	c0.382-0.003,0.755,0.083,1.133,0.121c0.171,0.03,0.403,0.037,0.576,0.037c0.503,0.091,1.017,0.096,1.519,0.188
	c-0.051,0.013-0.12,0.029-0.171,0.042c0.094,0.054,0.219,0.125,0.313,0.179c0.537,0.053,1.073,0.114,1.61,0.16
	c0.043,0.023,0.087,0.046,0.269,0.063c0.106,0.006,0.247,0.014,0.352,0.02c0.046,0.024,0.091,0.048-0.132,0.25
	c0.106,0.065,0.211,0.132,0.004,0.152c-0.769-0.164-0.769-0.164-1.057-0.096c0.004,0.001,0.712,0.216,1.543,0.414
	c0.04,0.03,0.081,0.059,0.035,0.243c0.086,0.04,0.201,0.094,0.288,0.135c-0.101-0.023-0.236-0.054-0.337-0.077
	c-0.341-0.059-0.801-0.139-1.146-0.119c0.699,0.167,0.699,0.167,0.958,0.364c-1.419-0.123-2.825-0.363-4.249-0.434
	c0.272-0.22,0.631-0.254,0.922-0.432c-0.023-0.027-0.046-0.053,0.023-0.099c0.087-0.063,0.203-0.147,0.29-0.21
	c-0.2-0.095-0.484-0.188-0.7-0.237c-0.189-0.03-0.444-0.058-0.635-0.073c0.02-0.009,0.047-0.022,0.068-0.031
	c-0.248-0.033-0.578-0.076-0.826-0.108l-0.131,0.119c-0.027,0.002-0.054,0.005-0.369-0.056c-0.1,0.026-0.233,0.061-0.333,0.088
	c0.088,0.181,0.287,0.385,0.461,0.485c-0.188,0.099-0.463,0.189-0.673,0.224l-0.588,0.102c0.002,0.028,0.003,0.056-0.075,0.1
	c-0.082,0.062-0.191,0.145-0.272,0.206c-0.323,0.34-0.397,0.347-0.81,0.384l0,0h0h0c0,0,0,0,0,0l0,0h0h0h0
	c-1.881,0.984-1.881,0.984-2.241,1.562c0.028,0.11,0.064,0.256,0.092,0.366c0.105-0.013,0.245-0.031,0.35-0.045
	c0.139,0.167,0.32,0.394,0.453,0.566c0.209-0.066,0.5-0.116,0.718-0.132c1.221,0.233,2.466,0.296,3.688,0.528
	c0.273,0.752,0.273,0.752,0.443,0.982l0.912,0.488c0.054,0.026,0.127,0.06,0.181,0.086c0.199-0.124,0.434-0.344,0.575-0.532
	c-0.159-0.33-0.372-0.769-0.532-1.099c0.282-0.145,0.638-0.394,0.845-0.635c-0.302-0.798-1.011-1.309-1.427-2.026
	c0.012-0.003,1.199-0.242,2.197,0.057c0.912,0.161,1.633,0.88,2.598,0.886c0.138-0.157,0.249-0.44,0.254-0.649
	c0.477,0.189,0.527,0.209,1.285,0.554c2.241,1.204,2.241,1.204,3.439,1.31c-0.029,0.066-0.069,0.154-0.098,0.22
	c1.323,0.124,1.484,0.559,1.64,0.979c-4.919,1.966-4.919,1.966-4.976,2.249c1.548-0.945,1.974-1.074,2.563-0.638
	c-0.182,0.134-0.457,0.272-0.674,0.335c0.201,0.049,0.485,0.06,0.688,0.021c0.53,1.248,1.811,0.992,2.063,0.928
	c0.053-0.198,0.186-0.45,0.322-0.603c0.129,0.183,0.286,0.441,0.38,0.645c-0.107,0.026-0.251,0.061-0.358,0.087
	c-0.514,0.335-1.244,0.744-1.662,1.193c-0.114-0.039-0.267-0.091-0.382-0.13c-0.01-0.156-0.023-0.364-0.033-0.521
	c0.21-0.129,0.524-0.255,0.768-0.287c-0.017-0.031-0.033-0.061-0.188-0.085c-0.051,0.002-1.773,0.577-2.246,0.751
	c-0.197,0.138-0.45,0.338-0.619,0.509c0.038,0.308,0.125,0.757,0.345,0.976c-0.104,0.021-0.242,0.049-0.346,0.07l-1.33,0.336
	c0.106,0.064,0.247,0.149,0.353,0.213c-0.112,0.027-0.261,0.062-0.372,0.089c-0.16,0.312-0.205,0.677-0.442,0.954
	c-0.109-0.006-0.254-0.014-0.363-0.02c0.124,0.197,0.244,0.506,0.237,0.738c-0.099,0.089-0.231,0.208-0.33,0.296
	c-0.004-0.106-0.009-0.248-0.012-0.355c-0.114-0.007-0.266-0.016-0.38-0.023c0.346,1.235,0.512,1.404,0.742,1.637
	c-0.304,0.214-0.503,0.557-0.861,0.705c-2.801,2.304-2.854,2.348-2.184,3.445c1.51,2.471,1.248,2.902,0.637,3.318
	c-1.268-0.577-1.185-2.135-2.136-2.942c-0.195-0.112-0.456-0.262-0.651-0.374c-0.209,0.086-0.488,0.204-0.696,0.294
	c-0.623-0.371-0.689-0.372-1.197-0.379c-1.719,0.195-1.719,0.195-1.908,0.258c-0.028,0.101-0.065,0.235-0.093,0.335
	c0.025,0.147,0.057,0.343,0.082,0.489c-2.53-0.381-3.774,0.05-4.095,0.192c-0.36,1.092-1.916,1.52-1.642,2.963
	c-0.283,0.352-1.55,2.253,1.321,5.124c1.15,0.362,2.281-0.111,3.424-0.075c0.361-1.029,0.603-1.653,0.817-2.204
	c1.702-0.615,2.009-0.726,2.508-0.267c-0.088,0.785-0.477,1.512-0.443,2.32c-0.092-0.071-0.216-0.166-0.308-0.238
	c-0.042-0.042-0.097-0.097-0.138-0.139c0.143,0.856,0.143,0.856-0.236,2.435c3.774-0.478,4.559-0.577,4.421,1.145
	c-0.355,4.443,1.635,4.079,2.254,3.862c1.057-0.687,2.06,0.097,3.092,0.111c0.937-1.931,0.937-1.931,1.421-2.175
	c0.843-0.277,1.415-1.071,2.326-1.218c-0.016,0.258-0.174,0.589-0.323,0.8c0.072,0.135,0.169,0.315,0.241,0.45
	c0.937-0.543,0.972-0.631,0.964-1.152c0.508,0.401,1.216,0.542,1.538,1.184c1.287-0.124,2.58-0.175,3.861-0.36
	c-0.033,0.1-0.076,0.232-0.109,0.332c1.536,1.041,2.154,3.315,4.461,3.32c0.913,0.002,1.065,0.104,1.717,0.648
	c0.57,0.752,0.492,1.794,1.129,2.516c-0.027,0.225-0.056,0.449-0.195,0.723c-0.097,0.09-0.226,0.21-0.322,0.3
	c0,0.115,0,0.269,0,0.384c0.732,0.033,0.732,0.033,1.082,0.194c-0.126,0.279-0.295,0.652-0.421,0.932
	c0.161-0.187,0.298-0.51,0.499-0.652c0.127-0.09,1.574,0.015,1.374,1.432c1.525-0.568,1.721,1.556,2.832,1.976
	c-0.077,0.79-0.332,1.507-0.533,1.969l0,0c-0.224,0.501-2.645,3.368-2.666,3.39c-0.783,0.923-1.221,2.067-1.935,3.035
	c-0.979,1.234-0.979,1.234-1.367,1.618c-0.954,0.968-0.954,0.968-1.352,1.247c-8.821,6.324-8.821,6.324-9.411,6.032
	c-0.998,0.487-1.53,1.723-2.815,1.747c-0.003-0.011-0.007-0.027-0.009-0.038c-0.067,0.086-0.156,0.2-0.223,0.285
	c-0.505,0.449-0.505,0.449-1.088,0.493c-0.07,0.086-0.164,0.201-0.235,0.286c-0.011,0.014-0.011,0.014-0.806,0.656
	c-0.593,0.353-1.133,0.792-1.766,1.08c-0.499,0.237-0.499,0.237-0.962,0.454c-0.144,0.053-0.338,0.117-0.484,0.165l-0.015,0.004
	l0.274-0.122l0.18-0.136l0.179-0.122h0h0h0h0c0,0,0,0,0,0h0c0,0,0,0,0.125-0.149c0.075-0.083,0.176-0.193,0.251-0.276
	c0.013-0.001,0.025-0.002,0.12-0.056l0.222-0.171l0.031-0.03c-0.024-0.022-0.055-0.05-0.079-0.072
	c0.174-0.155,0.408-0.361,0.584-0.514c-0.055,0.092-0.129,0.215-0.185,0.307c0.231-0.261,0.526-0.629,0.676-0.943
	c-0.114,0.147-0.301,0.318-0.452,0.428c3.393-4.148,5.172-10.096,5.127-11.069c-0.091-1.982-2.241-2.144-3.07-3.474
	c-0.764-1.224-1.147-2.651-2.025-3.815c-0.234-0.31-0.621-0.409-0.901-0.654c-0.18-1.415-0.18-1.415,0.616-1.972
	c-0.021-0.106-0.048-0.248-0.069-0.354c-0.187-0.069-0.403-0.265-0.497-0.44c-0.104-0.825,0.482-1.517,0.449-2.328
	c0.384-0.195,0.384-0.195,1.073-1.301c0.235-0.35,0.548-0.817,0.783-1.167c-1.001-4.587-1.418-4.186-2.533-3.115
	c0.076,0.086,0.178,0.2,0.254,0.286c-0.034,0.103-0.079,0.241-0.112,0.344c-0.197,0.008-0.467-0.061-0.637-0.159
	c-2.293-1.315-2.743-1.418-3.14-1.508c0,0-0.001,0-0.001,0c0,0-0.001,0-0.001,0c0,0-0.001,0-0.001,0c0,0-0.001,0-0.001,0
	c0,0-0.001,0-0.001,0c0,0-0.001,0-0.001,0c0,0-0.001,0-0.001,0c0,0-0.001,0-0.019,0.002c-0.153-0.063-0.357-0.146-0.51-0.209
	c-0.181-0.745-0.308-0.879-0.586-1.172c-0.382-0.317-0.751-0.648-1.128-0.969c0.005-0.103,0.012-0.239,0.017-0.342
	c-0.721,0.241-0.721,0.241-1.434,0.057c-1.27-0.206-1.27-0.206-3.499-1.572c-1.033-0.633-1.903,0.427-2.889,0.277
	c-6.085-1.781-6.085-1.781-6.245-3.732c-0.255-0.66-0.728-1.889-2.58-2.805c0.213-1.11-1.345-1.982-1.738-2.057
	c0.158-0.693,0.238-1.852-0.995-1.822c-0.475,2.024,1.263,3.189,1.862,4.796l0.236,0.25l0.565,0.698
	c-0.136,0.102-0.317,0.238-0.452,0.341c-0.242-0.605-0.307-0.768-1.264-1.291c0.017-0.311,0.037-0.62,0.059-0.927
	c-0.459-0.279-1.07-0.651-1.53-0.927c0.166-0.157,0.387-0.367,0.553-0.524c-0.004-0.04-0.576-3.982-2.505-3.898
	c0.002-0.017-0.09-2.757-0.27-3.558c3.245-4.988,3.245-4.988,3.396-5.178l0.009-0.316c-0.101-0.051-0.236-0.118-0.337-0.169
	c0.014,0.104,0.032,0.242,0.045,0.346c-0.059,0.127-0.138,0.297-0.197,0.424c-0.09-0.052-0.211-0.122-0.301-0.174
	c-0.078-0.261-0.051-0.633-0.065-0.905c0.101,0.009,0.235,0.02,0.336,0.029c0.009-0.268,0.101-0.623,0.199-0.873
	c0.022-0.404,0.022-0.404,0.518-0.888l0.204-0.432c-0.025,0.006-0.05,0.012-0.134,0.08c-0.103,0.045-0.24,0.106-0.342,0.151
	c0.19-0.194,0.446-0.449,0.649-0.629c-0.057,0.028-0.134,0.065-0.191,0.093c0.084-0.067,0.197-0.155,0.282-0.222
	c0.195-0.136,0.444-0.337,0.607-0.51l-0.565,0.423c0.254-0.224,0.592-0.523,0.837-0.757c-0.418,0.343-0.418,0.343-1.333,1.174
	c0.558-0.677,0.558-0.677,0.916-0.856c-0.001-0.068-0.003-0.158-0.004-0.226c0.08-0.082,0.188-0.191,0.268-0.273L14.74,6.104
	c-0.043,0.001-0.101,0.002-0.144,0.003L14.865,5.886L14.865,5.886z M33.729,1.275c-0.044-0.048-0.088-0.094-0.132-0.139
	c-0.107-0.001-0.214-0.02-0.321-0.009c-0.139,0.021-0.16,0.083-0.075,0.227C33.373,1.368,33.612,1.349,33.729,1.275L33.729,1.275z
	 M32.68,2.333L32.68,2.333c0.016-0.003,0.037-0.006,0.053-0.009c-0.129-0.09-0.129-0.09-0.496-0.055
	c-0.043-0.106-0.058-0.142-0.13-0.162c-0.024-0.007-0.055-0.016-0.079-0.02c-0.17-0.03-0.17-0.03-0.832-0.088
	c-0.02-0.002-0.086-0.01-0.108-0.047c-0.024-0.039-0.044-0.045-0.216-0.066c-0.011,0.017-0.025,0.039-0.036,0.055
	c-0.079,0.139-0.102,0.217-0.104,0.465c-0.176,0.029-0.176,0.029-0.293,0.126c0.178-0.017,0.356-0.034,0.533-0.051
	c0.004,0.049,0.008,0.099,0.012,0.15c0.125-0.019,0.357-0.055,0.649-0.305c0.073-0.063,0.073-0.063,0.169-0.048
	c0.137,0.021,0.265,0.079,0.402,0.099c0.147,0.021,0.227,0.007,0.275-0.001C32.547,2.364,32.613,2.345,32.68,2.333L32.68,2.333z
	 M12.393,9.199L12.393,9.199c0,0.004-0.001,0.01-0.001,0.015c0.129-0.159,0.235-0.334,0.367-0.489
	c0.091-0.107,0.202-0.193,0.301-0.292c-0.053-0.034-0.125-0.08-0.216,0.015C12.541,8.774,12.41,8.991,12.393,9.199L12.393,9.199z
	 M48.381,8.31L48.381,8.31l-0.192-0.522c-0.304,0.113-0.298,0.055-0.291-0.019c0.004-0.037,0.009-0.094-0.082-0.081
	c-0.04,0.006-0.04,0.006-0.142,0.113c-0.158-0.271-0.158-0.271,0.012-0.347c-0.166-0.147-0.166-0.147-0.187-0.156
	c-0.095,0.067-0.095,0.067-0.171,0.081c-0.077-0.102-0.077-0.102-0.28-0.413c-0.161,0.004-0.375,0.01-0.535,0.015l-0.029,0.005
	l-0.115-0.009c-0.246-0.047-0.246-0.047-0.532-0.303c-0.129,0.051-0.132,0.056-0.232,0.174c-0.053-0.241-0.125-0.562-0.178-0.803
	c-0.07,0.002-0.141,0.004-0.211,0.007c-0.198,0.023-0.198,0.023,0.008,1.336c0.057,0.258,0.055,0.259-0.091,0.319
	c0.015,0.04,0.082,0.173,0.321,0.186c0.013,0.001,1.421,0.017,1.698-0.076c0.002,0.011,0.005,0.025,0.007,0.036
	c0.015,0.07,0.015,0.07-0.011,0.15c0.115-0.086,0.269-0.2,0.385-0.285c0.159,0.206,0.159,0.206,0.332,0.519
	c0.038-0.076,0.056-0.11,0.078-0.107C48.102,8.151,48.229,8.261,48.381,8.31L48.381,8.31z M29.689,19.989L29.689,19.989
	c0.001-0.046-0.047-0.141-0.054-0.144c0,0,0,0,0,0c-0.003,0.009,0.037,0.102,0.049,0.13C29.685,19.979,29.688,19.984,29.689,19.989
	L29.689,19.989z M41.587,26.293L41.587,26.293c0.056-0.009,0.132-0.017,0.189-0.024c-0.284-0.279-0.284-0.279-2.962-1.348
	c-0.619-0.156-1.197-0.443-1.825-0.569c-0.184-0.037-0.462-0.093-1.154-0.032c-1.406,0.131-1.697,0.495-1.99,1.238
	c0.247-0.128,0.576-0.298,0.822-0.425c0.596-0.376,0.596-0.376,1.107-0.424c0.016,0.021,0.042,0.045,0.065,0.057
	c0.009-0.008,0.02-0.019,0.029-0.027c-0.019,0.097-0.026,0.139-0.05,0.372c0.859-0.034,1.696,0.226,2.555,0.191
	c0.074,0.278,0.127,0.479,0.273,0.572c0.27,0.172,0.588,0.073,0.874,0.157c-0.013,0.059-0.013,0.059-0.328,0.577
	c0.125-0.011,0.223-0.019,0.35-0.036c0.325-0.042,0.633-0.181,0.968-0.162C40.797,26.425,40.797,26.425,41.587,26.293L41.587,26.293
	z M46.064,27.245L46.064,27.245c0.012-0.006,0.027-0.016,0.038-0.022c-0.089-0.191-0.123-0.262-0.153-0.283
	c-0.024-0.016-0.066-0.018-0.095-0.021c-0.083-0.009-0.263-0.05-0.532-0.226c-0.363-0.225-0.605-0.366-0.991-0.432
	c-0.034-0.006-0.081-0.009-0.116-0.009c-0.237,0.001-0.463,0.079-0.696,0.103c-0.242,0.025-0.464-0.104-0.704-0.09
	c-0.169,0.032-0.337,0.071-0.506,0.103c0.539,0.325,0.637,0.383,0.905,1.048c-0.478,0.023-0.953-0.047-1.43-0.036
	c0.011,0.092,0.022,0.184,0.032,0.276c0.204,0.035,0.779,0.099,1.701-0.072c0.063-0.012,0.063-0.012,0.088-0.009
	c0.026,0.151,0.131,0.249,0.455,0.484c0.17-0.52,0.17-0.52,0.209-0.541c0.13-0.07,0.896-0.215,1.186-0.212
	C45.944,27.311,45.944,27.311,46.064,27.245L46.064,27.245L46.064,27.245z M38.53,35.017L38.53,35.017
	c0-0.001-0.001-0.002-0.002-0.002c-0.001,0-0.002,0.001-0.001,0.001C38.527,35.017,38.529,35.018,38.53,35.017
	C38.53,35.018,38.53,35.017,38.53,35.017L38.53,35.017z M37.743,36.848L37.743,36.848C37.743,36.848,37.743,36.848,37.743,36.848
	c-0.003,0-0.006-0.001-0.009,0c0,0,0,0,0,0C37.734,36.848,37.736,36.849,37.743,36.848L37.743,36.848z M42.773,64.416L42.773,64.416
	c0.001-0.001,0.001-0.002,0.001-0.002c0,0-0.001,0-0.001,0c-0.009,0.002-0.008,0.003-0.008,0.003
	C42.767,64.418,42.771,64.417,42.773,64.416L42.773,64.416z M37.308,67.694c0.006-0.003,0.012-0.005,0.018-0.009l0,0
	c-0.003,0.001-0.036,0.016-0.038,0.017C37.296,67.7,37.302,67.697,37.308,67.694L37.308,67.694L37.308,67.694z M31.842,10.247
	L31.842,10.247c0-0.002-0.001-0.006-0.017-0.005c-0.005,0.001-0.011,0.002-0.019,0.004c0.008,0.021,0.032,0.01,0.035,0.003
	C31.842,10.248,31.842,10.248,31.842,10.247L31.842,10.247z M49.107,60.676c0.019-0.018,0.007-0.029-0.014-0.029
	c-0.003,0-0.008,0-0.011,0c-0.032,0.004-0.088,0.022-0.1,0.089C49,60.733,49.08,60.701,49.107,60.676L49.107,60.676z M44.902,34.492
	c0.026-0.322-0.382-0.595-0.579-0.727c-0.046,0.269-0.046,0.269-0.219,0.584c0.202,0.359,0.21,0.373,0.295,0.687
	C44.691,34.845,44.883,34.719,44.902,34.492z"/>
<path id="coordenadas" class="st1" d="M21.963,28.265
	c0.07,1.446,0.174,2.926,0.315,4.432c1.742,18.643,8.396,34.341,14.862,35.063c-6.613-0.704-13.387-16.388-15.129-35.03
	c-0.141-1.506-0.244-2.985-0.312-4.432C8.378,29.914,0.04,31.646,0.001,32.673l0.012-0.281c0.048-1.026,8.374-2.755,21.672-4.37
	c-0.679-15.417,2.69-27.063,8.159-27.766l0.032-0.004c-5.351,0.674-8.624,12.313-7.927,27.738c0.244-0.029,0.489-0.059,0.736-0.088
	c17.515-2.08,36.575-3.148,42.572-2.384c1.087,0.138,1.67,0.328,1.792,0.557c0.019,0.086,0.039,0.174,0.058,0.262
	c-0.133-0.225-0.716-0.411-1.788-0.547c-6.003-0.764-25.084,0.304-42.619,2.387C22.452,28.206,22.207,28.235,21.963,28.265z"/>
<g id="sombra">
		<radialGradient id="gradient" cx="23.46" cy="12.7575" r="57.1744" fx="26.4476" fy="17.7529" gradientTransform="matrix(1 0 0 1 0.0111 0)" gradientUnits="userSpaceOnUse">
		<stop  offset="0" style="stop-color:#FFFFFF;stop-opacity:0"/>
		<stop  offset="0.4" style="stop-color:#FFFFFF;stop-opacity:0"/>
		<stop  offset="1" style="stop-color:#000000;stop-opacity:0.7"/>
	</radialGradient>
	<circle class="st5" cx="34" cy="34" r="34"/>
</g>
</svg>
